Coordinates
version=1
nRows=8
nColumns=63
inDegrees=yes

Units are S.I. units (second, meters, Newtons, ...)
If the header above contains a line with 'inDegrees', this indicates whether rotational values are in degrees (yes) or radians (no).

endheader
time	pelvis_tilt	pelvis_list	pelvis_rotation	pelvis_tx	pelvis_ty	pelvis_tz	hip_flexion_r	hip_adduction_r	hip_rotation_r	knee_angle_r	knee_angle_r_beta	ankle_angle_r	subtalar_angle_r	mtp_angle_r	hip_flexion_l	hip_adduction_l	hip_rotation_l	knee_angle_l	knee_angle_l_beta	ankle_angle_l	subtalar_angle_l	mtp_angle_l	L5_S1_Flex_Ext	L5_S1_Lat_Bending	L5_S1_axial_rotation	L4_L5_Flex_Ext	L4_L5_Lat_Bending	L4_L5_axial_rotation	L3_L4_Flex_Ext	L3_L4_Lat_Bending	L3_L4_axial_rotation	L2_L3_Flex_Ext	L2_L3_Lat_Bending	L2_L3_axial_rotation	L1_L2_Flex_Ext	L1_L2_Lat_Bending	L1_L2_axial_rotation	L1_T12_Flex_Ext	L1_T12_Lat_Bending	L1_T12_axial_rotation	Abs_r3	Abs_r2	Abs_r1	Abs_t1	Abs_t2	neck_flexion	neck_bending	neck_rotation	arm_flex_r	arm_add_r	arm_rot_r	elbow_flex_r	pro_sup_r	wrist_flex_r	wrist_dev_r	arm_flex_l	arm_add_l	arm_rot_l	elbow_flex_l	pro_sup_l	wrist_flex_l	wrist_dev_l
      0.88135593	      2.01071105	    -10.26141012	     96.57566490	      0.15372301	      0.96691288	      0.30437881	     -1.19192050	     -1.14734907	      1.70451892	      2.34669016	      0.04095747	     18.99574766	     -4.56274456	      0.00000000	      1.69809664	     -2.56780141	     -4.70836241	      4.15081350	      0.07244536	     21.51396656	     13.20274425	      0.00000000	      0.35505035	      0.44024139	     -0.16102529	      0.65936401	      0.58552105	     -0.17108937	      0.58331223	      1.07040293	     -0.17108937	      0.40578705	      1.07040293	     -0.14089713	      0.32969976	      0.89774025	     -0.13083305	      0.20287577	      0.68193392	     -0.12076897	      2.53608918	      4.98009870	     -0.89557436	      0.00000000	      0.00000000	     27.77558928	     -5.04536714	     -4.59849204	     12.76261458	     -8.95633408	     66.39002975	     35.23953263	     70.40699452	     -2.63962451	      4.07911881	     20.06286064	     -3.73776108	     83.35175262	     35.21109480	     43.58899385	      0.54632317	      7.22221701
      0.89830508	      1.73826508	    -10.24433941	     95.58820446	      0.15562471	      0.96728697	      0.30391038	     -0.94151559	     -1.45944928	      0.46987649	      2.74564187	      0.04792049	     19.88412806	     -1.25006558	      0.00000000	      1.38928524	     -2.34273471	     -5.22920812	      3.91760672	      0.06837514	     21.18155659	     12.66335467	      0.00000000	      0.33602902	      0.41831702	      0.02335810	      0.62403950	      0.55636164	      0.02481798	      0.55206208	      1.01709601	      0.02481798	      0.38404757	      1.01709601	      0.02043834	      0.31203655	      0.85303208	      0.01897846	      0.19200698	      0.64797307	      0.01751857	      2.40022170	      4.73208585	      0.12991074	      0.00000000	      0.00000000	     27.82308078	     -4.65345588	     -4.18507262	     12.61679987	     -8.89511947	     67.00297114	     35.16951356	     70.79927182	     -4.49466227	      2.28459726	     19.80538544	     -3.99379577	     83.43701149	     35.43928352	     42.47506349	      0.21148000	      6.44343690
      0.91525424	      1.57777639	    -10.16435945	     94.55158778	      0.15743015	      0.96747685	      0.30299883	     -0.83838291	     -1.66502669	     -0.65788256	      2.97392442	      0.05190477	     20.63285429	      1.96917158	      0.00000000	      0.92728435	     -2.19057430	     -4.92988478	      3.54355818	      0.06184676	     20.80995289	     11.03659077	      0.00000000	      0.31963599	      0.41079872	      0.22438851	      0.59359599	      0.54636230	      0.23841279	      0.52512996	      0.99881601	      0.23841279	      0.36531197	      0.99881601	      0.19633995	      0.29681398	      0.83770075	      0.18231566	      0.18264000	      0.63632722	      0.16829138	      2.28312789	      4.64703728	      1.24798157	      0.00000000	      0.00000000	     27.86879026	     -4.72145964	     -4.25363391	     12.18289522	     -9.11797177	     66.95046201	     35.77758164	     67.58170063	     -5.30182446	      1.75467732	     19.43013371	     -4.22758070	     82.90168681	     35.88076283	     42.26543674	     -0.15767525	      6.30160984
      0.93220339	      1.32616897	    -10.06201071	     93.62845669	      0.15924636	      0.96768769	      0.30213344	     -0.82669808	     -1.91590748	     -1.00679300	      3.10090806	      0.05412106	     21.08372947	      3.73950548	      0.00000000	      0.47847838	     -1.97899806	     -5.22718314	      3.25408693	      0.05679453	     20.52272864	     10.41226240	      0.00000000	      0.29645654	      0.38472163	      0.37993028	      0.55054945	      0.51167977	      0.40367592	      0.48704846	      0.93541217	      0.40367592	      0.33882018	      0.93541217	      0.33243900	      0.27528955	      0.78452435	      0.30869335	      0.16939527	      0.59593381	      0.28494771	      2.11755944	      4.35204804	      2.11305824	      0.00000000	      0.00000000	     27.91884784	     -4.99003471	     -5.19904438	     11.92196335	     -9.18214147	     67.08558928	     36.20498736	     66.34264699	     -6.01352935	      0.73181913	     19.22461547	     -4.57045766	     82.50601047	     36.32149621	     42.04871197	     -0.08827321	      6.52120376
      0.94915254	      0.98731599	    -10.09663636	     92.23728994	      0.16186321	      0.96778278	      0.30148343	     -0.55233030	     -2.23066929	      0.25549019	      3.36402463	      0.05871331	     21.37485550	      3.81618232	      0.00000000	      0.35353311	     -1.78345904	     -8.47709685	      3.48617581	      0.06084525	     20.79837833	     12.96797546	      0.00000000	      0.28932294	      0.33622026	      0.65122309	      0.53730164	      0.44717295	      0.69192453	      0.47532867	      0.81748595	      0.69192453	      0.33066719	      0.81748595	      0.56982020	      0.26866529	      0.68562036	      0.52911876	      0.16531913	      0.52080519	      0.48841732	      2.06660486	      3.80339085	      3.62190745	      0.00000000	      0.00000000	     27.93748738	     -5.78501400	     -7.82788982	     11.73879221	     -9.11807577	     66.67030887	     36.32814307	     73.19735923	     -6.82926694	     -1.16657424	     19.33206386	     -4.95422320	     82.83348688	     36.74906873	     41.24634123	      0.59167751	      7.49178865
      0.96610169	      0.89294187	    -10.00800417	     91.88550445	      0.16309978	      0.96774497	      0.30047139	     -0.76053405	     -2.28043555	      0.53296386	      3.22413744	      0.05627181	     21.65691596	      3.94083077	      0.00000000	      0.09456911	     -1.74925925	     -8.80700405	      3.45037088	      0.06022033	     20.94453449	     13.05997404	      0.00000000	      0.28472316	      0.33472149	      0.66364043	      0.52875938	      0.44517958	      0.70511795	      0.46777168	      0.81384184	      0.70511795	      0.32541010	      0.81384184	      0.58068537	      0.26439392	      0.68256407	      0.53920785	      0.16269081	      0.51848359	      0.49773032	      2.03374905	      3.78643646	      3.69096896	      0.00000000	      0.00000000	     27.99028027	     -5.53619469	     -8.12487695	     11.62108131	     -9.35300892	     66.78014052	     37.19529700	     73.86772254	     -6.38679366	     -1.10487730	     19.21184932	     -5.42929795	     82.82243462	     37.44175423	     41.17998820	      0.87227959	      7.76758078
      0.98305085	      0.71667252	     -9.93305622	     90.91292901	      0.16504553	      0.96774891	      0.29943100	     -0.88450232	     -2.42086697	      1.61212541	      3.10088365	      0.05412063	     21.83343585	      3.76285402	      0.00000000	     -0.24156675	     -1.64387656	    -10.55010267	      3.37711815	      0.05894183	     21.12295799	     14.26462903	      0.00000000	      0.28041594	      0.32944066	      0.77924259	      0.52076044	      0.43815608	      0.82794525	      0.46069534	      0.80100203	      0.82794525	      0.32048738	      0.80100203	      0.68183727	      0.26039424	      0.67179540	      0.63313461	      0.16022967	      0.51030359	      0.58443194	      2.00298300	      3.72669869	      4.33391353	      0.00000000	      0.00000000	     28.06613132	     -5.24783089	     -8.70900831	     11.26329723	     -9.28826353	     64.56746625	     37.88072892	     84.08264541	     -4.58428007	      0.34215121	     18.65119122	     -5.82012866	     80.83014967	     38.14151334	     42.64061110	      1.55685374	     10.19743335
      1.00000000	      0.57763931	     -9.80841213	     90.29974981	      0.16635334	      0.96785006	      0.29854300	     -1.12177551	     -2.54359589	      2.13395185	      2.92502524	      0.05105132	     21.93034546	      3.77924779	      0.00000000	     -0.59263127	     -1.51022806	    -10.87299679	      3.23547884	      0.05646976	     21.13051451	     13.99668473	      0.00000000	      0.27187447	      0.34423299	      0.77913587	      0.50489807	      0.45782987	      0.82783186	      0.44666256	      0.83696808	      0.82783186	      0.31072533	      0.83696808	      0.68174389	      0.25246263	      0.70195991	      0.63304790	      0.15534907	      0.53321690	      0.58435190	      1.94197213	      3.89403239	      4.33331998	      0.00000000	      0.00000000	     28.13837462	     -4.33978591	     -8.18061255	     11.94840364	     -9.40532493	     66.86376907	     38.26376741	     86.17841119	     -4.24097830	      0.61040313	     18.47018920	     -6.22048355	     80.22666279	     38.77979055	     42.88704175	      2.15859527	     11.61932504
